<svg width="36" height="27" viewBox="0 0 36 27" fill="none" xmlns="http://www.w3.org/2000/svg">
<g filter="url(#filter0_b_22_8)">
<path fill-rule="evenodd" clip-rule="evenodd" d="M0.466829 17.3457V17.8257C12.0411 17.8257 23.5372 17.8257 35.078 17.8146V17.3345V2.31836C35.078 1.26891 34.6092 0.800003 33.5377 0.800003H2.00709C0.924442 0.800003 0.466829 1.26891 0.466829 2.32953V17.3457ZM16.7237 12.2975C16.2571 12.5674 15.7873 12.8392 15.3113 13.1144V6.54968C16.5193 7.25333 17.7092 7.93889 18.9126 8.63227C19.5995 9.02803 20.2908 9.42634 20.9924 9.83201C19.5459 10.6649 18.15 11.4724 16.7237 12.2975ZM29.6771 23.8188C29.5668 23.5482 29.4539 23.2712 29.341 22.9837H29.3418C30.8482 22.9837 32.2655 22.9837 33.6604 22.9725C34.4194 22.9614 34.9998 22.5371 35.0332 21.8561C35.0718 21.2079 35.0624 20.5543 35.0529 19.8954C35.0487 19.6011 35.0444 19.3057 35.0444 19.0092H0.455566V21.376C0.455566 22.5036 0.924341 22.9725 2.04047 22.9725H6.18131C5.8354 23.8431 5.5118 24.6468 5.18821 25.4504L5.18795 25.451C5.05402 25.8083 4.99821 26.1655 5.44466 26.333C5.87995 26.5005 6.09202 26.2102 6.23711 25.8529C6.33519 25.6109 6.43519 25.3699 6.53513 25.129C6.7764 24.5474 7.01738 23.9665 7.23047 23.3744C7.35324 23.0507 7.52066 22.9725 7.84434 22.9725C14.463 22.9837 21.0816 22.9837 27.7003 22.9725C28.0463 22.9725 28.1914 23.0842 28.303 23.3968C28.5562 24.0689 28.8264 24.7241 29.0988 25.3845C29.1385 25.481 29.1784 25.5775 29.2182 25.6743C29.2461 25.7357 29.2712 25.7943 29.2963 25.8529C29.3215 25.9116 29.3466 25.9702 29.3745 26.0316C29.5196 26.3553 29.8209 26.5116 30.0888 26.3218C30.2674 26.199 30.4236 25.8083 30.3567 25.6073C30.1632 25.0112 29.9267 24.4312 29.6771 23.8188ZM21.9857 21.2085H17.7444C17.276 21.2085 16.8064 21.2073 16.3364 21.2061C15.3952 21.2036 14.4522 21.2011 13.5143 21.2085C13.1348 21.2085 12.7665 21.1639 12.7553 20.6838C12.7441 20.1926 13.1125 20.0921 13.5254 20.0921H21.9969C22.3987 20.0921 22.7781 20.1814 22.7781 20.6727C22.7781 21.1862 22.3763 21.2085 21.9857 21.2085Z" fill="#E60000"/>
</g>
<g filter="url(#filter1_b_22_8)">
<path fill-rule="evenodd" clip-rule="evenodd" d="M5.44466 26.333C4.99821 26.1655 5.05402 25.8083 5.18795 25.451C5.3843 24.9634 5.58092 24.4751 5.78225 23.9725C5.91273 23.6468 6.04529 23.3149 6.18131 22.9725H2.04047C0.924341 22.9725 0.455566 22.5036 0.455566 21.376V19.0092H35.0444C35.0444 19.3057 35.0487 19.6011 35.0529 19.8954C35.0624 20.5543 35.0718 21.2079 35.0332 21.8561C34.9998 22.5371 34.4194 22.9614 33.6604 22.9725C32.602 22.981 31.5307 22.983 30.4173 22.9835C30.0633 22.9837 29.7051 22.9837 29.3418 22.9837C29.342 22.9843 29.3415 22.985 29.3418 22.9857C29.4544 23.2724 29.5671 23.5488 29.6771 23.8188C29.6996 23.874 29.722 23.929 29.7443 23.9837C29.969 24.5359 30.1806 25.0649 30.3567 25.6073C30.4236 25.8083 30.2674 26.199 30.0888 26.3218C29.8209 26.5116 29.5196 26.3553 29.3745 26.0316C29.3466 25.9702 29.3215 25.9116 29.2963 25.8529C29.2712 25.7943 29.2461 25.7357 29.2182 25.6743L29.0988 25.3845C28.8264 24.7241 28.5562 24.0689 28.303 23.3968C28.1914 23.0842 28.0463 22.9725 27.7003 22.9725C21.0816 22.9837 14.463 22.9837 7.84434 22.9725C7.52066 22.9725 7.35324 23.0507 7.23047 23.3744C7.01738 23.9665 6.7764 24.5474 6.53513 25.129C6.43519 25.3699 6.33519 25.6109 6.23711 25.8529C6.09202 26.2102 5.87995 26.5005 5.44466 26.333ZM7.65194 21.9794C7.72331 21.9739 7.78829 21.9725 7.84434 21.9725H7.84603C9.38782 21.9751 10.9296 21.9771 12.4714 21.9785C12.2798 21.8675 12.0972 21.7037 11.9625 21.4741C11.8149 21.2222 11.7613 20.9533 11.7556 20.7071C11.75 20.4623 11.7922 20.224 11.8849 20.0092H1.45557V21.376C1.45557 21.5939 1.47886 21.7306 1.50326 21.8111C1.51485 21.8494 1.5255 21.8709 1.53133 21.8811C1.53427 21.8863 1.53633 21.8892 1.53729 21.8905L1.53831 21.8917L1.53988 21.8931C1.54095 21.8939 1.54355 21.8958 1.5483 21.8985C1.55769 21.904 1.57815 21.9142 1.61501 21.9255C1.69274 21.9494 1.82616 21.9725 2.04047 21.9725H7.65467L7.65194 21.9794ZM23.6459 20.0092C23.7422 20.2292 23.7781 20.4572 23.7781 20.6727C23.7781 20.9292 23.7278 21.2142 23.5709 21.4806C23.4364 21.7089 23.2553 21.8697 23.0678 21.9785C24.6114 21.9771 26.155 21.9751 27.6986 21.9725L27.7003 21.9725C27.7698 21.9725 27.8467 21.9752 27.9284 21.9837H29.341C30.8469 21.9837 32.2596 21.9837 33.6485 21.9726C33.8509 21.9691 33.9599 21.9116 33.9996 21.8804C34.0179 21.8659 34.0234 21.8562 34.0252 21.8528C34.0266 21.8502 34.0329 21.838 34.0344 21.807L34.035 21.7967C34.0692 21.2218 34.0633 20.6367 34.0544 20.0092H23.6459ZM14.3113 14.8477V4.80987L15.8147 5.68559C17.0203 6.38785 18.2081 7.07223 19.4118 7.7658C20.0985 8.1614 20.7908 8.56028 21.493 8.96631L22.9934 9.83386L21.4914 10.6986C20.0459 11.5309 18.6509 12.3379 17.2244 13.1631L14.3113 14.8477ZM1.46683 17.8257C12.7034 17.8257 23.8696 17.8254 35.078 17.8146V2.31836C35.078 1.26891 34.6092 0.800003 33.5377 0.800003H2.00709C0.924442 0.800003 0.466829 1.26891 0.466829 2.32953V17.8257M34.078 16.8155C23.2056 16.8254 12.3696 16.8257 1.46683 16.8257V2.32953C1.46683 2.00284 1.5248 1.89466 1.53847 1.87426C1.55905 1.86033 1.67003 1.8 2.00709 1.8H33.5377C33.8806 1.8 33.9889 1.86416 34.0062 1.87663C34.0194 1.89528 34.078 1.99915 34.078 2.31836V16.8155ZM34.0088 1.87872C34.0088 1.87874 34.0083 1.87837 34.0074 1.87755ZM15.3113 13.1144V6.54968C15.6458 6.74453 15.979 6.93799 16.3113 7.13061C17.1793 7.63361 18.0424 8.13089 18.9126 8.63227C19.2709 8.8387 19.6304 9.04582 19.9919 9.25432C20.3235 9.44555 20.6568 9.63794 20.9924 9.83201C20.6565 10.0254 20.3232 10.2175 19.9917 10.4087C18.8958 11.0409 17.8187 11.664 16.7237 12.2975L15.3113 13.1144ZM12.7553 20.6838C12.7441 20.1926 13.1125 20.0921 13.5254 20.0921H21.9969C22.3987 20.0921 22.7781 20.1814 22.7781 20.6727C22.7781 21.1862 22.3763 21.2085 21.9857 21.2085H17.7444C17.276 21.2085 16.8064 21.2073 16.3364 21.2061C15.3953 21.2036 14.4521 21.2011 13.5143 21.2085C13.1348 21.2085 12.7665 21.1639 12.7553 20.6838Z" fill="#E60000"/>
</g>
<defs>
<filter id="filter0_b_22_8" x="-11.5444" y="-11.2" width="58.6223" height="49.604" filterUnits="userSpaceOnUse" color-interpolation-filters="sRGB">
<feFlood flood-opacity="0" result="BackgroundImageFix"/>
<feGaussianBlur in="BackgroundImageFix" stdDeviation="6"/>
<feComposite in2="SourceAlpha" operator="in" result="effect1_backgroundBlur_22_8"/>
<feBlend mode="normal" in="SourceGraphic" in2="effect1_backgroundBlur_22_8" result="shape"/>
</filter>
<filter id="filter1_b_22_8" x="-11.5444" y="-11.2" width="58.6223" height="49.604" filterUnits="userSpaceOnUse" color-interpolation-filters="sRGB">
<feFlood flood-opacity="0" result="BackgroundImageFix"/>
<feGaussianBlur in="BackgroundImageFix" stdDeviation="6"/>
<feComposite in2="SourceAlpha" operator="in" result="effect1_backgroundBlur_22_8"/>
<feBlend mode="normal" in="SourceGraphic" in2="effect1_backgroundBlur_22_8" result="shape"/>
</filter>
</defs>
</svg>
