<svg width="224" height="53" viewBox="0 0 224 53" fill="none" xmlns="http://www.w3.org/2000/svg">
<path d="M0.00439453 0L32.108 0.0194078L32.1305 51.7244L0.0268763 51.705L0.00439453 0Z" fill="#505F98"/>
<path d="M0.00439453 0L32.108 0.0194078L32.1305 51.7244L0.0268763 51.705L0.00439453 0Z" fill="url(#paint0_linear_92_1722)"/>
<path d="M31.9067 0.120178L64.0104 0.139586L64.0329 51.8446L31.9292 51.8252L31.9067 0.120178Z" fill="#505F98"/>
<path d="M31.9067 0.120178L64.0104 0.139586L64.0329 51.8446L31.9292 51.8252L31.9067 0.120178Z" fill="url(#paint1_linear_92_1722)"/>
<path d="M63.8091 0.219391L95.9127 0.238799L95.9352 51.9438L63.8316 51.9244L63.8091 0.219391Z" fill="#505F98"/>
<path d="M63.8091 0.219391L95.9127 0.238799L95.9352 51.9438L63.8316 51.9244L63.8091 0.219391Z" fill="url(#paint2_linear_92_1722)"/>
<path d="M95.7018 0.367249L127.805 0.386656L127.828 52.0917L95.7243 52.0723L95.7018 0.367249Z" fill="#505F98"/>
<path d="M95.7018 0.367249L127.805 0.386656L127.828 52.0917L95.7243 52.0723L95.7018 0.367249Z" fill="url(#paint3_linear_92_1722)"/>
<path d="M127.625 0.466431L159.729 0.485838L159.751 52.1908L127.648 52.1714L127.625 0.466431Z" fill="#505F98"/>
<path d="M159.509 0.595581L191.612 0.614989L191.635 52.32L159.531 52.3006L159.509 0.595581Z" fill="#505F98"/>
<path d="M191.411 0.694641L223.515 0.714049L223.537 52.4191L191.433 52.3996L191.411 0.694641Z" fill="#505F98"/>
<path d="M155.588 0.744263L187.691 0.763671L187.714 52.4687L155.61 52.4493L155.588 0.744263Z" fill="url(#paint4_linear_92_1722)"/>
<path d="M187.511 0.864319L219.615 0.883727L219.637 52.5887L187.534 52.5693L187.511 0.864319Z" fill="url(#paint5_linear_92_1722)"/>
<defs>
<linearGradient id="paint0_linear_92_1722" x1="-5.76243" y1="141.043" x2="138.18" y2="142.771" gradientUnits="userSpaceOnUse">
<stop stop-color="#010101" stop-opacity="0.01"/>
<stop offset="0.95" stop-color="#010101"/>
</linearGradient>
<linearGradient id="paint1_linear_92_1722" x1="21.8726" y1="188.934" x2="225.792" y2="192.626" gradientUnits="userSpaceOnUse">
<stop stop-color="#010101" stop-opacity="0.01"/>
<stop offset="0.95" stop-color="#010101"/>
</linearGradient>
<linearGradient id="paint2_linear_92_1722" x1="66.7131" y1="300.564" x2="405.67" y2="287.791" gradientUnits="userSpaceOnUse">
<stop stop-color="#010101" stop-opacity="0.01"/>
<stop offset="0.95" stop-color="#010101"/>
</linearGradient>
<linearGradient id="paint3_linear_92_1722" x1="108.026" y1="422.657" x2="599.976" y2="410.33" gradientUnits="userSpaceOnUse">
<stop stop-color="#010101" stop-opacity="0.01"/>
<stop offset="0.36" stop-color="#010101" stop-opacity="0.36"/>
<stop offset="0.95" stop-color="#010101"/>
</linearGradient>
<linearGradient id="paint4_linear_92_1722" x1="137.11" y1="242.988" x2="405.613" y2="242.17" gradientUnits="userSpaceOnUse">
<stop stop-color="white" stop-opacity="0.01"/>
<stop offset="0.07" stop-color="white" stop-opacity="0.22"/>
<stop offset="0.16" stop-color="white" stop-opacity="0.45"/>
<stop offset="0.25" stop-color="white" stop-opacity="0.65"/>
<stop offset="0.33" stop-color="white" stop-opacity="0.8"/>
<stop offset="0.4" stop-color="white" stop-opacity="0.91"/>
<stop offset="0.46" stop-color="white" stop-opacity="0.98"/>
<stop offset="0.51" stop-color="white"/>
</linearGradient>
<linearGradient id="paint5_linear_92_1722" x1="150.553" y1="149.517" x2="300.83" y2="147.528" gradientUnits="userSpaceOnUse">
<stop stop-color="white" stop-opacity="0.01"/>
<stop offset="0.07" stop-color="white" stop-opacity="0.22"/>
<stop offset="0.16" stop-color="white" stop-opacity="0.45"/>
<stop offset="0.25" stop-color="white" stop-opacity="0.65"/>
<stop offset="0.33" stop-color="white" stop-opacity="0.8"/>
<stop offset="0.4" stop-color="white" stop-opacity="0.91"/>
<stop offset="0.46" stop-color="white" stop-opacity="0.98"/>
<stop offset="0.51" stop-color="white"/>
</linearGradient>
</defs>
</svg>
