<svg width="944" height="623" viewBox="0 0 944 623" fill="none" xmlns="http://www.w3.org/2000/svg">
<path opacity="0.24" d="M151.503 531.613C105.054 536.283 57.1801 541.419 16.3067 564.264C10.8359 567.328 5.28134 570.942 2.263 576.458C-3.79465 587.553 3.08047 602.177 13.7495 608.855C24.4185 615.533 37.5818 616.294 50.1373 616.844C273.704 626.586 497.607 622.761 721.362 618.957C786.341 617.858 852.346 616.59 914.62 597.718C925.813 594.337 938.117 589.265 942.33 578.212C947.843 563.757 935.267 547.737 920.594 543.236C905.922 538.735 890.264 542.095 875.088 544.06C822.393 550.886 769.237 540.446 716.772 532.099C614.064 515.784 507.5 502.512 403.472 500.039C368.007 499.215 337.718 511.515 303.007 516.376C252.89 523.434 201.893 526.541 151.503 531.613Z" fill="#505F98"/>
<rect x="379.263" y="416" width="98.0679" height="82" fill="#505F98"/>
<rect x="379.263" y="416" width="98.0679" height="82" fill="url(#paint0_linear_108_1327)"/>
<rect x="171.119" y="74" width="518.359" height="355" rx="9.37" fill="#505F98"/>
<path opacity="0.65" d="M672.466 103.438V397.562C672.482 402.443 670.558 407.129 667.118 410.588C663.678 414.047 659.004 415.994 654.128 416H202.465C197.59 415.989 192.92 414.04 189.481 410.582C186.042 407.125 184.116 402.441 184.128 397.562V103.438C184.116 98.5589 186.042 93.8754 189.481 90.4177C192.92 86.9599 197.59 85.0111 202.465 85H654.128C659.004 85.0055 663.678 86.9526 667.118 90.4115C670.558 93.8705 672.482 98.5572 672.466 103.438V103.438Z" fill="url(#paint1_linear_108_1327)"/>
<rect x="334.231" y="488" width="206.143" height="21" fill="#505F98"/>
<rect x="379.263" y="476" width="98.0679" height="12" fill="url(#paint2_linear_108_1327)"/>
<path d="M764.529 49.9663V533.819C764.495 543.846 756.449 551.966 746.513 552H744.437C734.519 551.954 726.503 543.827 726.503 533.819V49.9663L744.582 2L764.529 49.9663Z" fill="#505F98"/>
<rect x="743.515" y="50" width="21.0146" height="463" fill="url(#paint3_linear_108_1327)"/>
<path opacity="0.65" d="M764.529 50L726.503 49.2688L738.221 17.2043L744.504 0L751.406 17.2043L764.529 50V50Z" fill="url(#paint4_linear_108_1327)"/>
<path d="M751.52 18H738.511L744.71 1L751.52 18V18Z" fill="url(#paint5_linear_108_1327)"/>
<rect x="724.502" y="506" width="40.0277" height="17" fill="url(#paint6_linear_108_1327)"/>
<path d="M764.529 519V534.38C764.495 544.649 756.449 552.965 746.513 553H744.437C734.519 552.953 726.503 544.63 726.503 534.38V519H764.529Z" fill="url(#paint7_linear_108_1327)"/>
<path d="M672.466 103.513V110H184.128V103.513C184.116 98.6143 186.042 93.9117 189.482 90.4398C192.921 86.9679 197.592 85.0112 202.466 85H654.127C659.003 85.0056 663.677 86.9605 667.118 90.4336C670.558 93.9067 672.482 98.6126 672.466 103.513V103.513Z" fill="url(#paint8_linear_108_1327)"/>
<rect x="194.134" y="142" width="47.0326" height="227" fill="url(#paint9_linear_108_1327)"/>
<rect x="312.216" y="158" width="221.153" height="209" fill="url(#paint10_linear_108_1327)"/>
<rect x="363.252" y="256" width="7.00485" height="9" fill="url(#paint11_linear_108_1327)"/>
<rect x="363.252" y="214" width="7.00485" height="9" fill="url(#paint12_linear_108_1327)"/>
<rect x="268.186" y="256" width="7.00485" height="9" fill="url(#paint13_linear_108_1327)"/>
<rect x="268.186" y="214" width="7.00485" height="9" fill="url(#paint14_linear_108_1327)"/>
<rect x="363.252" y="169" width="7.00485" height="9" fill="url(#paint15_linear_108_1327)"/>
<rect x="269.186" y="169" width="7.00485" height="9" fill="url(#paint16_linear_108_1327)"/>
<rect x="317.22" y="169" width="7.00485" height="9" fill="url(#paint17_linear_108_1327)"/>
<rect x="317.22" y="256" width="7.00485" height="9" fill="url(#paint18_linear_108_1327)"/>
<path fill-rule="evenodd" clip-rule="evenodd" d="M281.195 254H359.249V181H281.195V254ZM351.387 246.282H289.057V188.656H351.387V246.282Z" fill="#505F98"/>
<path fill-rule="evenodd" clip-rule="evenodd" d="M281.195 254H359.249V181H281.195V254ZM351.387 246.282H289.057V188.656H351.387V246.282Z" fill="url(#paint19_linear_108_1327)"/>
<rect x="565.391" y="122" width="100.069" height="100" fill="url(#paint20_linear_108_1327)"/>
<rect x="565.391" y="232" width="100.069" height="100" fill="url(#paint21_linear_108_1327)"/>
<rect opacity="0.65" x="194.134" y="141" width="47.0326" height="13" fill="url(#paint22_linear_108_1327)"/>
<path d="M114.079 82.1498V205H93.0645V82.1498C93.0644 77.6099 95.8828 73.5698 100.083 72.089V59.8248C100.083 57.7124 101.759 56 103.826 56C105.893 56 107.569 57.7124 107.569 59.8248V72.2969C111.488 73.9351 114.057 77.8231 114.079 82.1498V82.1498Z" fill="#505F98"/>
<path d="M114.079 82.1498V205H93.0645V82.1498C93.0644 77.6099 95.8828 73.5698 100.083 72.089V59.8248C100.083 57.7124 101.759 56 103.826 56C105.893 56 107.569 57.7124 107.569 59.8248V72.2969C111.488 73.9351 114.057 77.8231 114.079 82.1498V82.1498Z" fill="url(#paint23_linear_108_1327)"/>
<rect x="80.0554" y="160" width="50.0346" height="9" rx="2.245" fill="#505F98"/>
<path d="M104.761 242V242C96.1882 242 89.0616 229.185 89.0616 220.634V164H120.083V220.634C120.083 229.185 113.313 242 104.761 242Z" fill="#505F98"/>
<rect x="80.0554" y="160" width="50.0346" height="9" rx="2.245" fill="url(#paint24_linear_108_1327)"/>
<path d="M104.761 242V242C96.1882 242 89.0616 229.366 89.0616 220.937V169H120.083V220.937C120.083 229.366 113.313 242 104.761 242Z" fill="url(#paint25_linear_108_1327)"/>
<path d="M304.853 302C304.18 298.436 303.755 293.39 305.048 293.043C307.776 292.275 304.853 302 304.853 302Z" fill="#28353D"/>
<path d="M448.112 497.507C447.626 510.102 437.864 556.388 437.547 569.004C437.547 573.202 438.667 579.647 437.315 583.698C434.525 592.284 424.636 591.108 423.347 586.049L422.861 583.53C418.276 559.012 425.65 531.198 422.861 499.186C421.192 479.643 413.416 441.963 408.323 441.711C405.64 441.711 344.382 570.851 339.057 578.807C336.437 582.817 329.062 582.187 325.491 585.42C321.92 588.652 355.243 487.515 369.211 434.07C372.468 423.039 374.592 411.709 375.55 400.252C375.93 393.64 373.796 391.415 379.903 389.463C384.129 388.119 389.982 388.497 394.504 388.182C399.427 387.804 445.217 387.721 445.217 390.953C444.774 408.502 449.296 468.412 448.112 497.507Z" fill="#606161"/>
<path d="M448.112 497.507C447.626 510.102 437.864 556.388 437.547 569.004C437.547 573.202 438.667 579.647 437.315 583.698C434.525 592.284 424.636 591.108 423.347 586.049L422.861 583.53C418.276 559.012 425.65 531.198 422.861 499.186C421.192 479.643 413.416 441.963 408.323 441.711C405.64 441.711 344.382 570.851 339.057 578.807C336.437 582.817 329.062 582.187 325.491 585.42C321.92 588.652 355.243 487.515 369.211 434.07C372.468 423.039 374.592 411.709 375.55 400.252C375.93 393.64 373.796 391.415 379.903 389.463C384.129 388.119 389.982 388.497 394.504 388.182C399.427 387.804 445.217 387.721 445.217 390.953C444.774 408.502 449.296 468.412 448.112 497.507Z" fill="url(#paint26_linear_108_1327)"/>
<path d="M394.039 229.148C393.654 225.163 391.772 223 389.932 223C388.092 223 386.958 225.12 387.343 229.148C387.431 232.122 389.675 234.597 392.649 235C394.51 235 394.446 233.134 394.039 229.148Z" fill="#FFCD9C"/>
<path d="M426.433 229.159C426.684 225.166 428.52 223 430.419 223C432.318 223 433.549 225.124 433.257 229.159C433.231 232.173 430.986 234.687 428.04 235C426.162 235 426.141 233.152 426.433 229.159Z" fill="#FFCD9C"/>
<path d="M430.158 246.672C429.899 248.777 420.984 258 410.838 258C400.693 258 392.318 249.577 390.548 246.208C388.778 242.839 395.901 199.505 400.024 195.884C404.147 192.262 420.854 194.641 422.257 196.558C425.625 201.085 431.259 238.27 430.158 246.672Z" fill="#F4AD7D"/>
<path d="M425.964 213.977C424.584 214.639 419.169 200.842 418.033 198.525C416.897 196.208 417.08 193.829 418.459 193.167C419.838 192.505 421.867 193.871 423.002 196.167C424.138 198.463 427.323 213.336 425.964 213.977Z" fill="#FFCD9C"/>
<path d="M395.593 212.987C394.163 212.501 397.951 198.179 398.777 195.703C399.603 193.228 401.456 191.599 402.806 192.086C404.156 192.573 404.72 194.984 403.894 197.481C403.068 199.977 396.943 213.474 395.593 212.987Z" fill="#FFCD9C"/>
<path d="M401.271 245H423.034L426.295 265.622C414.439 272.005 407.527 271.301 398.276 264.214L401.271 245Z" fill="#F4AD7D"/>
<path d="M410.284 249.13C410.284 248.75 411.19 248.43 412.286 248.43C413.382 248.43 414.287 248.75 414.287 249.13C414.287 249.51 413.405 249.57 412.286 249.57C411.166 249.57 410.284 249.53 410.284 249.13Z" fill="#F4AD7D"/>
<path d="M431.317 239.808C432.141 234.894 433.485 199.708 430.19 195.051C426.895 190.394 407.166 187.381 404.175 188.108C397.476 189.731 398.646 194.517 398.646 194.517C396.655 194.547 394.706 195.084 392.988 196.076C390.69 197.615 385.856 219.79 389.714 236.56C391.449 244.102 398.278 250.66 410.071 250.981C424.597 251.365 430.32 245.896 431.317 239.808Z" fill="#606161"/>
<path d="M404.256 189.762C405.816 188.448 407.835 187.828 409.856 188.041C415.988 188.008 422.072 189.14 427.79 191.376C430.961 192.488 433.84 194.311 436.21 196.708C438.597 199.173 439.697 202.627 439.178 206.034C438.126 211.047 432.863 214.148 431.137 218.97C429.748 222.837 430.737 226.575 430.779 230.463C430.807 233.606 430.582 236.746 430.106 239.852C429.137 245.906 423.601 251.344 409.392 250.983C397.941 250.664 391.31 244.143 389.626 236.644C387.347 224.198 387.945 211.389 391.374 199.215C397.545 200.648 403.859 201.361 410.192 201.339C416.907 201.395 423.603 200.611 430.127 199.002C431.242 205.503 431.221 218.524 430.863 228.253" fill="#606161"/>
<path d="M369.128 261.954C365.694 262.241 362.385 263.384 359.502 265.28C354.565 269.171 354.19 276.43 354.273 282.748C354.104 291.501 354.71 300.252 356.086 308.897C357.565 316.826 360.252 324.441 362.461 332.202C365.942 344.831 367.77 357.862 367.898 370.966C367.898 378.162 367.773 386.07 372.253 391.697C377.149 397.806 385.816 398.998 393.607 399.438C404.67 400.086 415.775 400.17 426.837 399.709C434.254 399.375 442.15 398.643 448.025 394.082C452.713 390.442 463.693 267.288 455.171 264.171C446.65 261.054 437.484 260.259 428.442 259.506C408.17 257.791 389.086 256.431 369.128 261.954Z" fill="#505F98"/>
<path d="M432.947 517.291C431.86 531.255 429.268 582 429.268 582L422.663 581.77C418.128 557.39 425.422 529.732 422.663 497.899C421.012 478.465 413.32 440.996 408.283 440.746C409.788 428.221 418.253 430.1 418.253 430.1C424.41 439.294 429.72 449.026 434.117 459.178C439.155 472.37 434.055 503.263 432.947 517.291Z" fill="url(#paint27_linear_108_1327)"/>
<path d="M308.59 583.024C307.558 583.786 306.776 584.83 306.338 586.025C306.103 587.009 306.198 588.04 306.609 588.965C307.775 591.326 309.986 593.019 312.593 593.55C315.17 594.04 317.808 594.131 320.413 593.818L328.753 593.262C330.876 593.212 332.981 592.873 335.009 592.255C337.039 591.627 338.715 590.198 339.638 588.308C340.129 586.916 340.321 585.438 340.201 583.969C340.201 577.164 337.782 571.634 330.234 573.299C322.327 574.765 314.9 578.102 308.59 583.024V583.024Z" fill="#505F98"/>
<path d="M447.128 586.063C448.076 586.759 448.794 587.709 449.195 588.797C449.409 589.682 449.325 590.611 448.956 591.446C447.893 593.584 445.864 595.114 443.472 595.579C441.115 596.035 438.698 596.121 436.313 595.834L428.741 595.325C426.815 595.284 424.904 594.985 423.062 594.435C421.205 593.864 419.675 592.566 418.84 590.853C418.393 589.595 418.215 588.26 418.318 586.932C418.318 580.785 420.494 575.72 427.436 577.288C434.632 578.619 441.389 581.63 447.128 586.063V586.063Z" fill="#505F98"/>
<path d="M456.316 264C456.316 264 489.032 283.163 498.857 307.389C508.683 331.614 466.678 390 466.678 390L457.689 380.814C457.689 380.814 479.614 336.759 476.224 325.74C472.835 314.721 459.555 304.452 459.555 304.452L456.316 264Z" fill="#505F98"/>
<path d="M363.252 301.859C363.252 301.859 317.763 322.24 299.278 312.238C280.793 302.237 299.824 252 299.824 252L312.203 256.202C312.203 256.202 301.859 281.815 313.693 285.618C325.526 289.421 360.986 264.438 360.986 264.438L363.252 301.859Z" fill="#505F98"/>
<path d="M448.892 388.976C447.583 389.826 446.523 390.968 445.807 392.297C445.377 393.425 445.222 394.629 445.354 395.82C445.274 398.709 446.589 401.479 448.935 403.367C450.583 404.25 452.43 404.76 454.328 404.857C455.491 405.048 456.681 405.048 457.845 404.857C459.031 404.646 460.022 403.888 460.477 402.844C460.632 402.183 460.697 401.507 460.671 400.831C460.822 397.51 463.324 394.793 465.395 392.076C465.896 391.551 466.218 390.9 466.323 390.204C466.311 389.434 466.022 388.69 465.503 388.091C464.101 386.199 460.628 382.717 457.845 383.018C455.062 383.32 451.049 387.326 448.892 388.976Z" fill="#F4AD7D"/>
<path d="M320.011 244.435C320.603 243.611 321.008 242.679 321.197 241.698C321.348 240.683 320.812 239.687 319.857 239.211C318.341 238.647 316.539 240.13 315.045 239.504C314.54 239.235 314.116 238.846 313.815 238.375C312.051 235.945 311.038 233.093 310.893 230.143C310.979 228.571 310.831 226.995 310.453 225.463C310.009 223.886 308.426 222.849 306.718 223.018C305.312 223.331 304.521 224.689 303.642 225.776C302.763 226.863 301.005 228.158 299.863 229.516C297.912 232.307 296.796 235.55 296.633 238.898C296.018 243.077 295.622 247.861 298.698 250.87C301.071 253.189 308.3 255.927 311.618 254.694C315.287 253.315 318.165 247.444 320.011 244.435Z" fill="#F4AD7D"/>
<defs>
<linearGradient id="paint0_linear_108_1327" x1="501.398" y1="484.322" x2="511.818" y2="357.584" gradientUnits="userSpaceOnUse">
<stop stop-color="#010101" stop-opacity="0.01"/>
<stop offset="0.95" stop-color="#010101"/>
</linearGradient>
<linearGradient id="paint1_linear_108_1327" x1="99.6845" y1="21.5167" x2="96.9693" y2="471.071" gradientUnits="userSpaceOnUse">
<stop stop-color="white" stop-opacity="0.01"/>
<stop offset="0.07" stop-color="white" stop-opacity="0.22"/>
<stop offset="0.16" stop-color="white" stop-opacity="0.45"/>
<stop offset="0.25" stop-color="white" stop-opacity="0.65"/>
<stop offset="0.33" stop-color="white" stop-opacity="0.8"/>
<stop offset="0.4" stop-color="white" stop-opacity="0.91"/>
<stop offset="0.46" stop-color="white" stop-opacity="0.98"/>
<stop offset="0.51" stop-color="white"/>
</linearGradient>
<linearGradient id="paint2_linear_108_1327" x1="-153.97" y1="459.073" x2="-153.87" y2="601.307" gradientUnits="userSpaceOnUse">
<stop stop-color="#010101" stop-opacity="0.01"/>
<stop offset="0.95" stop-color="#010101"/>
</linearGradient>
<linearGradient id="paint3_linear_108_1327" x1="722.523" y1="3652.09" x2="1028.72" y2="3652.14" gradientUnits="userSpaceOnUse">
<stop stop-color="#010101" stop-opacity="0.01"/>
<stop offset="0.95" stop-color="#010101"/>
</linearGradient>
<linearGradient id="paint4_linear_108_1327" x1="731.919" y1="44.3486" x2="762.258" y2="45.6689" gradientUnits="userSpaceOnUse">
<stop stop-color="white" stop-opacity="0.01"/>
<stop offset="0.07" stop-color="white" stop-opacity="0.22"/>
<stop offset="0.16" stop-color="white" stop-opacity="0.45"/>
<stop offset="0.25" stop-color="white" stop-opacity="0.65"/>
<stop offset="0.33" stop-color="white" stop-opacity="0.8"/>
<stop offset="0.4" stop-color="white" stop-opacity="0.91"/>
<stop offset="0.46" stop-color="white" stop-opacity="0.98"/>
<stop offset="0.51" stop-color="white"/>
</linearGradient>
<linearGradient id="paint5_linear_108_1327" x1="740.38" y1="16.191" x2="750.732" y2="16.6395" gradientUnits="userSpaceOnUse">
<stop stop-color="#010101" stop-opacity="0.01"/>
<stop offset="0.95" stop-color="#010101"/>
</linearGradient>
<linearGradient id="paint6_linear_108_1327" x1="663.746" y1="486.811" x2="664.053" y2="554.818" gradientUnits="userSpaceOnUse">
<stop stop-color="#010101" stop-opacity="0.01"/>
<stop offset="0.95" stop-color="#010101"/>
</linearGradient>
<linearGradient id="paint7_linear_108_1327" x1="732.545" y1="477.281" x2="674.208" y2="549.558" gradientUnits="userSpaceOnUse">
<stop stop-color="#010101" stop-opacity="0.01"/>
<stop offset="0.95" stop-color="#010101"/>
</linearGradient>
<linearGradient id="paint8_linear_108_1327" x1="998.444" y1="204.966" x2="1032.63" y2="-202.145" gradientUnits="userSpaceOnUse">
<stop stop-color="white" stop-opacity="0.01"/>
<stop offset="0.07" stop-color="white" stop-opacity="0.22"/>
<stop offset="0.16" stop-color="white" stop-opacity="0.45"/>
<stop offset="0.25" stop-color="white" stop-opacity="0.65"/>
<stop offset="0.33" stop-color="white" stop-opacity="0.8"/>
<stop offset="0.4" stop-color="white" stop-opacity="0.91"/>
<stop offset="0.46" stop-color="white" stop-opacity="0.98"/>
<stop offset="0.51" stop-color="white"/>
</linearGradient>
<linearGradient id="paint9_linear_108_1327" x1="171.563" y1="94.8698" x2="309.57" y2="463.142" gradientUnits="userSpaceOnUse">
<stop stop-color="white" stop-opacity="0.01"/>
<stop offset="0.07" stop-color="white" stop-opacity="0.22"/>
<stop offset="0.16" stop-color="white" stop-opacity="0.45"/>
<stop offset="0.25" stop-color="white" stop-opacity="0.65"/>
<stop offset="0.33" stop-color="white" stop-opacity="0.8"/>
<stop offset="0.4" stop-color="white" stop-opacity="0.91"/>
<stop offset="0.46" stop-color="white" stop-opacity="0.98"/>
<stop offset="0.51" stop-color="white"/>
</linearGradient>
<linearGradient id="paint10_linear_108_1327" x1="275.094" y1="117.99" x2="271.768" y2="400.698" gradientUnits="userSpaceOnUse">
<stop stop-color="white" stop-opacity="0.01"/>
<stop offset="0.07" stop-color="white" stop-opacity="0.22"/>
<stop offset="0.16" stop-color="white" stop-opacity="0.45"/>
<stop offset="0.25" stop-color="white" stop-opacity="0.65"/>
<stop offset="0.33" stop-color="white" stop-opacity="0.8"/>
<stop offset="0.4" stop-color="white" stop-opacity="0.91"/>
<stop offset="0.46" stop-color="white" stop-opacity="0.98"/>
<stop offset="0.51" stop-color="white"/>
</linearGradient>
<linearGradient id="paint11_linear_108_1327" x1="590.928" y1="309.704" x2="610.116" y2="-268.215" gradientUnits="userSpaceOnUse">
<stop stop-color="#010101" stop-opacity="0.01"/>
<stop offset="0.95" stop-color="#010101"/>
</linearGradient>
<linearGradient id="paint12_linear_108_1327" x1="590.076" y1="310.045" x2="609.264" y2="-267.875" gradientUnits="userSpaceOnUse">
<stop stop-color="#010101" stop-opacity="0.01"/>
<stop offset="0.95" stop-color="#010101"/>
</linearGradient>
<linearGradient id="paint13_linear_108_1327" x1="495.897" y1="307.354" x2="515.113" y2="-270.565" gradientUnits="userSpaceOnUse">
<stop stop-color="#010101" stop-opacity="0.01"/>
<stop offset="0.95" stop-color="#010101"/>
</linearGradient>
<linearGradient id="paint14_linear_108_1327" x1="495.045" y1="307.694" x2="514.262" y2="-270.224" gradientUnits="userSpaceOnUse">
<stop stop-color="#010101" stop-opacity="0.01"/>
<stop offset="0.95" stop-color="#010101"/>
</linearGradient>
<linearGradient id="paint15_linear_108_1327" x1="589.138" y1="311.545" x2="608.354" y2="-266.373" gradientUnits="userSpaceOnUse">
<stop stop-color="#010101" stop-opacity="0.01"/>
<stop offset="0.95" stop-color="#010101"/>
</linearGradient>
<linearGradient id="paint16_linear_108_1327" x1="495.107" y1="309.236" x2="514.295" y2="-268.683" gradientUnits="userSpaceOnUse">
<stop stop-color="#010101" stop-opacity="0.01"/>
<stop offset="0.95" stop-color="#010101"/>
</linearGradient>
<linearGradient id="paint17_linear_108_1327" x1="543.098" y1="310.396" x2="562.314" y2="-267.501" gradientUnits="userSpaceOnUse">
<stop stop-color="#010101" stop-opacity="0.01"/>
<stop offset="0.95" stop-color="#010101"/>
</linearGradient>
<linearGradient id="paint18_linear_108_1327" x1="544.914" y1="307.843" x2="564.13" y2="-270.075" gradientUnits="userSpaceOnUse">
<stop stop-color="#010101" stop-opacity="0.01"/>
<stop offset="0.95" stop-color="#010101"/>
</linearGradient>
<linearGradient id="paint19_linear_108_1327" x1="199.836" y1="322.399" x2="432.068" y2="539.094" gradientUnits="userSpaceOnUse">
<stop stop-color="white" stop-opacity="0.01"/>
<stop offset="0.07" stop-color="white" stop-opacity="0.22"/>
<stop offset="0.16" stop-color="white" stop-opacity="0.45"/>
<stop offset="0.25" stop-color="white" stop-opacity="0.65"/>
<stop offset="0.33" stop-color="white" stop-opacity="0.8"/>
<stop offset="0.4" stop-color="white" stop-opacity="0.91"/>
<stop offset="0.46" stop-color="white" stop-opacity="0.98"/>
<stop offset="0.51" stop-color="white"/>
</linearGradient>
<linearGradient id="paint20_linear_108_1327" x1="548.703" y1="102.864" x2="546.918" y2="238.026" gradientUnits="userSpaceOnUse">
<stop stop-color="white" stop-opacity="0.01"/>
<stop offset="0.07" stop-color="white" stop-opacity="0.22"/>
<stop offset="0.16" stop-color="white" stop-opacity="0.45"/>
<stop offset="0.25" stop-color="white" stop-opacity="0.65"/>
<stop offset="0.33" stop-color="white" stop-opacity="0.8"/>
<stop offset="0.4" stop-color="white" stop-opacity="0.91"/>
<stop offset="0.46" stop-color="white" stop-opacity="0.98"/>
<stop offset="0.51" stop-color="white"/>
</linearGradient>
<linearGradient id="paint21_linear_108_1327" x1="548.703" y1="212.864" x2="546.918" y2="348.026" gradientUnits="userSpaceOnUse">
<stop stop-color="white" stop-opacity="0.01"/>
<stop offset="0.07" stop-color="white" stop-opacity="0.22"/>
<stop offset="0.16" stop-color="white" stop-opacity="0.45"/>
<stop offset="0.25" stop-color="white" stop-opacity="0.65"/>
<stop offset="0.33" stop-color="white" stop-opacity="0.8"/>
<stop offset="0.4" stop-color="white" stop-opacity="0.91"/>
<stop offset="0.46" stop-color="white" stop-opacity="0.98"/>
<stop offset="0.51" stop-color="white"/>
</linearGradient>
<linearGradient id="paint22_linear_108_1327" x1="184.862" y1="138.281" x2="184.845" y2="156.481" gradientUnits="userSpaceOnUse">
<stop stop-color="white" stop-opacity="0.01"/>
<stop offset="0.07" stop-color="white" stop-opacity="0.22"/>
<stop offset="0.16" stop-color="white" stop-opacity="0.45"/>
<stop offset="0.25" stop-color="white" stop-opacity="0.65"/>
<stop offset="0.33" stop-color="white" stop-opacity="0.8"/>
<stop offset="0.4" stop-color="white" stop-opacity="0.91"/>
<stop offset="0.46" stop-color="white" stop-opacity="0.98"/>
<stop offset="0.51" stop-color="white"/>
</linearGradient>
<linearGradient id="paint23_linear_108_1327" x1="95.1635" y1="265.745" x2="133.348" y2="265.767" gradientUnits="userSpaceOnUse">
<stop stop-color="white" stop-opacity="0.01"/>
<stop offset="0.07" stop-color="white" stop-opacity="0.22"/>
<stop offset="0.16" stop-color="white" stop-opacity="0.45"/>
<stop offset="0.25" stop-color="white" stop-opacity="0.65"/>
<stop offset="0.33" stop-color="white" stop-opacity="0.8"/>
<stop offset="0.4" stop-color="white" stop-opacity="0.91"/>
<stop offset="0.46" stop-color="white" stop-opacity="0.98"/>
<stop offset="0.51" stop-color="white"/>
</linearGradient>
<linearGradient id="paint24_linear_108_1327" x1="21.8713" y1="168.2" x2="33.5226" y2="206.932" gradientUnits="userSpaceOnUse">
<stop stop-color="#010101" stop-opacity="0.01"/>
<stop offset="0.95" stop-color="#010101"/>
</linearGradient>
<linearGradient id="paint25_linear_108_1327" x1="46.6693" y1="316.933" x2="147.572" y2="318.976" gradientUnits="userSpaceOnUse">
<stop stop-color="#010101" stop-opacity="0.01"/>
<stop offset="0.95" stop-color="#010101"/>
</linearGradient>
<linearGradient id="paint26_linear_108_1327" x1="449.441" y1="474.512" x2="353.347" y2="309.732" gradientUnits="userSpaceOnUse">
<stop stop-color="#010101" stop-opacity="0.01"/>
<stop offset="0.95" stop-color="#010101"/>
</linearGradient>
<linearGradient id="paint27_linear_108_1327" x1="450.463" y1="12.8918" x2="277.577" y2="17.7614" gradientUnits="userSpaceOnUse">
<stop stop-color="#010101" stop-opacity="0.01"/>
<stop offset="0.95" stop-color="#010101"/>
</linearGradient>
</defs>
</svg>
