<svg width="75" height="14" viewBox="0 0 75 14" fill="none" xmlns="http://www.w3.org/2000/svg">
<path d="M7.5 0L9.92344 3.66442L14.1574 4.83688L11.4212 8.27408L11.6145 12.6631L7.5 11.123L3.3855 12.6631L3.57879 8.27408L0.842604 4.83688L5.07656 3.66442L7.5 0Z" fill="#E60000"/>
<path d="M22.5 0L24.9234 3.66442L29.1574 4.83688L26.4212 8.27408L26.6145 12.6631L22.5 11.123L18.3855 12.6631L18.5788 8.27408L15.8426 4.83688L20.0766 3.66442L22.5 0Z" fill="#E60000"/>
<path d="M37.5 0L39.9234 3.66442L44.1574 4.83688L41.4212 8.27408L41.6145 12.6631L37.5 11.123L33.3855 12.6631L33.5788 8.27408L30.8426 4.83688L35.0766 3.66442L37.5 0Z" fill="#E60000"/>
<path d="M52.5 0L54.9234 3.66442L59.1574 4.83688L56.4212 8.27408L56.6145 12.6631L52.5 11.123L48.3855 12.6631L48.5788 8.27408L45.8426 4.83688L50.0766 3.66442L52.5 0Z" fill="#E60000"/>
<path d="M67.5 0L69.9234 3.66442L74.1574 4.83688L71.4212 8.27408L71.6145 12.6631L67.5 11.123L63.3855 12.6631L63.5788 8.27408L60.8426 4.83688L65.0766 3.66442L67.5 0Z" fill="#E60000"/>
</svg>
